<?xml version="1.0" encoding="UTF-8"?>
<svg version="1.1" xmlns="http://www.w3.org/2000/svg" width="1850" height="649">
<path d="M0 0 C2.59405356 1.04527145 5.0354103 2.12213766 7.53125 3.359375 C8.23613556 3.70006516 8.94102112 4.04075531 9.66726685 4.39176941 C11.95037811 5.50023738 14.22548254 6.62401514 16.5 7.75 C17.2797821 8.13237823 18.05956421 8.51475647 18.86297607 8.90872192 C31.37766764 15.04703295 43.62254678 21.5302849 55.63330078 28.61230469 C57.7831854 29.87287248 59.94664033 31.10278842 62.12109375 32.3203125 C97.23289582 52.16479324 129.14243384 77.20458256 160 103 C164.82336735 99.50069427 169.42037107 95.82171734 173.9375 91.9375 C181.05835937 85.84276772 188.46786361 80.15728109 195.96240234 74.53173828 C197.76897215 73.17367227 199.56686869 71.8050369 201.36328125 70.43359375 C220.90180473 55.6716052 241.75300215 42.1557567 263 30 C263.72977051 29.58137695 264.45954102 29.16275391 265.21142578 28.73144531 C270.43612281 25.74955071 275.70333286 22.85188886 281 20 C281.89090332 19.52030762 282.78180664 19.04061523 283.69970703 18.54638672 C294.04853693 13.00217976 304.47178474 7.62567835 315.125 2.6875 C315.94790527 2.29618896 316.77081055 1.90487793 317.61865234 1.50170898 C323.17097129 -1.00994337 323.17097129 -1.00994337 326.60546875 -0.96875 C329.94639338 0.38288019 333.0691975 2.01915803 336.1875 3.8125 C336.88238525 4.20920898 337.57727051 4.60591797 338.29321289 5.01464844 C355.22089457 14.82987467 371.05007047 26.39470228 386 39 C383.00094175 41.46272387 380.17035662 42.86196095 376.5390625 44.20703125 C375.44335938 44.62114258 374.34765625 45.03525391 373.21875 45.46191406 C371.43984375 46.1304541 371.43984375 46.1304541 369.625 46.8125 C331.46365218 61.44352069 294.57990575 80.70394039 261 104 C260.2884375 104.48903809 259.576875 104.97807617 258.84375 105.48193359 C240.50341844 118.0946332 222.82567861 131.4177452 206 146 C207.41738489 149.25207092 209.12526412 151.31361067 211.6875 153.75 C215.69175716 157.66096801 219.3737572 161.73934494 223 166 C223.82371094 166.95777344 224.64742188 167.91554687 225.49609375 168.90234375 C229.44279434 173.51334048 233.35887836 178.12672635 237.046875 182.94921875 C237.7888916 183.91674072 237.7888916 183.91674072 238.54589844 184.90380859 C239.5004377 186.15676158 240.44671827 187.41605832 241.38378906 188.68212891 C242.52102326 190.17586686 243.75378242 191.59590013 245 193 C249.02890567 193 250.5937881 191.00029139 253.4375 188.4375 C300.93502457 146.99721318 358.1397672 117.49215236 417 96 C418.31436035 95.51515137 418.31436035 95.51515137 419.65527344 95.02050781 C421.76488163 94.24736683 423.87946428 93.49254266 426 92.75 C427.0725 92.37359375 428.145 91.9971875 429.25 91.609375 C432.38885379 90.91383353 434.00089434 90.8266486 437 92 C450.87602148 105.99816956 460.78348631 125.77364935 470 143 C467.53339111 145.46660889 465.68010087 145.85935204 462.33984375 146.84765625 C460.57966919 147.37721924 460.57966919 147.37721924 458.78393555 147.91748047 C458.15756195 148.10356873 457.53118835 148.28965698 456.88583374 148.48138428 C433.83658683 155.35612011 411.67715905 163.52284032 390 174 C389.23333008 174.37012207 388.46666016 174.74024414 387.67675781 175.12158203 C383.72515288 177.04142299 379.80073131 179.00861074 375.89648438 181.02294922 C374.60580555 181.68789472 373.3127306 182.34820521 372.01757812 183.00439453 C349.37071273 194.48555035 328.09580914 208.50948045 308 224 C307.43539063 224.433125 306.87078125 224.86625 306.2890625 225.3125 C297.83108512 231.81295423 289.55542634 238.44457366 282 246 C282.67804688 247.09054688 283.35609375 248.18109375 284.0546875 249.3046875 C290.20622728 259.25190563 296.0682322 269.31284625 301.67480469 279.57617188 C303.1347177 282.24640333 304.60194677 284.91253282 306.0703125 287.578125 C308.71713461 292.38344728 311.35994805 297.19095527 314 302 C314.51731689 301.47253174 315.03463379 300.94506348 315.56762695 300.40161133 C319.30187155 296.62498619 323.0211256 292.99277953 327.1875 289.6875 C330.69901951 286.87443087 334.1484544 284.01643586 337.54052734 281.06030273 C345.59787921 274.07933362 354.17801174 267.97261548 363 262 C363.7616748 261.48179687 364.52334961 260.96359375 365.30810547 260.4296875 C399.54472017 237.26773696 452.06458587 204 495 204 C498.51543282 214.60851852 501.044816 225.36358751 503.25 236.3125 C503.50797363 237.57465332 503.76594727 238.83680664 504.03173828 240.13720703 C505.53141049 247.75131125 506.55144046 255.25158245 507 263 C501.65642035 264.80080988 496.29837744 266.54203494 490.921875 268.2421875 C439.36309776 284.68246538 393.93989642 311.1892158 354.63916016 348.46191406 C352.9391639 350.05708481 351.21109964 351.61786366 349.48046875 353.1796875 C348.36085312 354.22275095 347.24232487 355.26698307 346.125 356.3125 C345.59447021 356.77970459 345.06394043 357.24690918 344.51733398 357.72827148 C342.83715705 359.25138436 342.83715705 359.25138436 341 362 C341.34628459 367.10081473 342.74844997 371.71481642 344.44140625 376.50390625 C344.94464547 377.96812742 345.4474768 379.43248883 345.94995117 380.89697266 C346.21343353 381.6584259 346.47691589 382.41987915 346.74838257 383.20440674 C352.37396034 399.49890741 357.17380438 415.86509506 361.3425293 432.59033203 C361.91192666 434.98719236 361.91192666 434.98719236 363 437 C363.72703125 435.93523437 364.4540625 434.87046875 365.203125 433.7734375 C381.20197226 410.56554898 400.91412978 388.39750098 424 372 C425.36637528 371.00197239 426.73223277 370.00323564 428.09765625 369.00390625 C437.10174896 362.47476583 446.32346237 356.47954529 456 351 C456.62745117 350.63841797 457.25490234 350.27683594 457.90136719 349.90429688 C466.93134178 344.73519481 476.22399655 340.51033017 485.875 336.625 C486.90866699 336.20806885 487.94233398 335.7911377 489.00732422 335.36157227 C495.57376161 332.78118648 502.15480349 330.70665689 509 329 C503.33868973 388.65878888 503.33868973 388.65878888 495.4296875 399.06640625 C491.92659707 401.85423545 488.10142999 403.90608181 484.1875 406.0625 C475.27539104 411.10561523 467.02699302 416.64967541 459 423 C458.45182617 423.43248047 457.90365234 423.86496094 457.33886719 424.31054688 C413.91551562 458.95545245 387.48802869 508.96580348 381 564 C380.93039062 565.17925049 380.93039062 565.17925049 380.859375 566.38232422 C380.45516165 572.40732143 380.45516165 572.40732143 378.1640625 575.390625 C377.32617188 576.00421875 376.48828125 576.6178125 375.625 577.25 C374.63242187 577.98734375 373.63984375 578.7246875 372.6171875 579.484375 C371.41315531 580.32535148 370.20726705 581.16367398 369 582 C368.29391602 582.50080078 367.58783203 583.00160156 366.86035156 583.51757812 C353.92425852 592.68593063 340.63709922 601.03300105 326.6875 608.5625 C326.04651367 608.90966064 325.40552734 609.25682129 324.74511719 609.61450195 C320.24454688 612 320.24454688 612 318 612 C317.99413376 611.44989258 317.98826752 610.89978516 317.98222351 610.33300781 C318.93930523 516.50677665 318.93930523 516.50677665 295 427 C268.14747566 474.60521599 255.28398477 528.56704538 254.68359375 583.01953125 C254.66296409 584.61521366 254.64196634 586.21089134 254.62062073 587.80656433 C254.56601949 591.96070476 254.51634314 596.11488927 254.46777344 600.269104 C254.4170993 604.52644671 254.36165552 608.78372719 254.30664062 613.04101562 C254.19981952 621.36062412 254.09821315 629.68028545 254 638 C225.86919476 644.66821606 225.86919476 644.66821606 214 646.375 C212.96101563 646.53871094 211.92203125 646.70242188 210.8515625 646.87109375 C204.50567134 647.82217819 198.41009705 648.07537697 192 648 C191.99120064 646.35559181 191.99120064 646.35559181 191.98222351 644.67796326 C191.92426479 634.19487642 191.85114642 623.71198268 191.76428509 613.22909451 C191.72011821 607.8435823 191.68075515 602.45813655 191.65356445 597.07250977 C191.33435613 535.7469834 182.994237 477.61111035 161 420 C137.57908762 455.13136856 132.33171937 516.20787233 129.93359375 557.5859375 C129.87021002 558.66010736 129.87021002 558.66010736 129.80554581 559.75597763 C128.80224036 577.06517634 128.56461357 594.3769953 128.39910889 611.71105957 C128.35797577 615.82957824 128.30740422 619.94798229 128.2578125 624.06640625 C128.16304691 632.0441903 128.07805809 640.02203498 128 648 C120.85112306 648.09429041 114.12870289 647.47950187 107.0625 646.375 C105.59006836 646.16423828 105.59006836 646.16423828 104.08789062 645.94921875 C91.58176064 644.02756387 79.30295946 640.91766977 67 638 C66.99413376 637.16459686 66.98826752 636.32919373 66.98222351 635.46847534 C66.9233675 627.44263758 66.85080129 619.41705128 66.76428509 611.39146233 C66.72029264 607.26929692 66.68090046 603.14721453 66.65356445 599.02490234 C66.2467847 539.49516989 57.02712083 479.03122876 26 427 C15.88148135 458.63588498 10.2422234 491.65469789 6.6875 524.625 C6.60609772 525.37806427 6.52469543 526.13112854 6.44082642 526.90701294 C4.32595969 546.77977342 3.76605399 566.59044034 3.4375 586.5625 C3.39419943 589.03841706 3.35058195 591.5143286 3.30664062 593.99023438 C3.20077776 599.9934309 3.09881069 605.99668347 3 612 C-18.31599171 605.10080944 -43.209485 588.790515 -59 573 C-59.37831801 570.19564271 -59.65409774 567.44227181 -59.875 564.625 C-64.84846639 512.43076679 -90.85373816 461.72778712 -131.44140625 428.09375 C-134.89685065 425.3089601 -138.43669878 422.64450613 -142 420 C-142.56831543 419.57090332 -143.13663086 419.14180664 -143.72216797 418.69970703 C-153.17160105 411.57960639 -163.69712896 403.76762368 -175 400 C-175.97077407 397.49790812 -176.70615276 395.14945096 -177.375 392.5625 C-177.58487549 391.77697754 -177.79475098 390.99145508 -178.01098633 390.18212891 C-183.15261815 370.26141044 -187.23092356 349.6175086 -187 329 C-146.56217192 341.34196211 -110.40084643 362.65878858 -80 392 C-79.32501465 392.64775391 -78.6500293 393.29550781 -77.95458984 393.96289062 C-69.00425883 402.59176181 -60.61871273 411.33231541 -53.22753906 421.34033203 C-51.95553362 423.06011982 -50.66387329 424.76360351 -49.3671875 426.46484375 C-43.22325342 434.55349316 -43.22325342 434.55349316 -42 437 C-41.68885254 435.87956299 -41.37770508 434.75912598 -41.05712891 433.60473633 C-39.59076713 428.33754527 -38.11040517 423.07434957 -36.625 417.8125 C-36.35732819 416.86315582 -36.08965637 415.91381165 -35.81387329 414.93569946 C-31.95974795 401.31554288 -27.80065011 387.89011696 -22.85986328 374.62231445 C-22.46653809 373.54425537 -22.07321289 372.46619629 -21.66796875 371.35546875 C-21.32016357 370.43403076 -20.9723584 369.51259277 -20.61401367 368.56323242 C-19.89182051 365.54839901 -19.98399287 363.92545545 -21 361 C-22.67151648 358.74835075 -22.67151648 358.74835075 -24.8671875 356.671875 C-26.06432373 355.47848511 -26.06432373 355.47848511 -27.28564453 354.26098633 C-28.56737549 353.0180481 -28.56737549 353.0180481 -29.875 351.75 C-30.74108887 350.89752686 -31.60717773 350.04505371 -32.49951172 349.16674805 C-37.69822417 344.09593656 -42.95753647 339.27608275 -48.69140625 334.81640625 C-50.92842149 333.05631812 -52.98396683 331.19288993 -55.0625 329.25 C-88.66319587 299.17051382 -131.43998551 280.59319705 -173.86376953 267.0078125 C-177.92033706 265.70425413 -181.96087455 264.35652007 -186 263 C-185.09927704 252.268973 -183.29041902 241.79714217 -181.125 231.25 C-180.88056152 230.04384033 -180.63612305 228.83768066 -180.38427734 227.5949707 C-178.69972366 219.5711755 -176.54506323 211.7927335 -174 204 C-123.88037549 208.47929011 -70.71157797 240.59139636 -31 270 C-30.45923828 270.40041504 -29.91847656 270.80083008 -29.36132812 271.21337891 C-16.60057043 280.72267103 -4.69068604 291.2159386 7 302 C7.31114746 301.42781738 7.62229492 300.85563477 7.94287109 300.26611328 C11.08642853 294.4877356 14.23675594 288.71309491 17.39257812 282.94140625 C18.39263183 281.11141734 19.39153941 279.28080103 20.38867188 277.44921875 C26.23198628 266.72313477 32.41306075 256.28683704 39 246 C17.02511829 223.57913361 -10.68141312 205.50302431 -37.91601562 190.17871094 C-40.06469956 188.96340564 -42.19605304 187.72074494 -44.328125 186.4765625 C-74.07812062 169.36238592 -106.13899589 157.13477625 -139.00561523 147.51000977 C-140.02727783 147.20764404 -141.04894043 146.90527832 -142.1015625 146.59375 C-143.00213379 146.33271484 -143.90270508 146.07167969 -144.83056641 145.80273438 C-147 145 -147 145 -149 143 C-140.7518116 126.76359476 -130.92784526 111.56424428 -120 97 C-119.6194043 96.41911621 -119.23880859 95.83823242 -118.84667969 95.23974609 C-117.6484375 93.54296875 -117.6484375 93.54296875 -115 91 C-110.20815726 91.30719244 -105.96025691 92.53098306 -101.44921875 94.1171875 C-100.20688477 94.55337402 -98.96455078 94.98956055 -97.68457031 95.43896484 C-96.35186201 95.91666364 -95.01951358 96.39536746 -93.6875 96.875 C-92.66215149 97.24180878 -92.66215149 97.24180878 -91.61608887 97.61602783 C-60.13199983 108.90658976 -29.76669775 122.91703885 -1 140 C-0.10587402 140.53093262 0.78825195 141.06186523 1.70947266 141.60888672 C24.1426479 155.02636506 45.48327401 170.19251852 65.5078125 187 C68.58499357 189.46946192 71.77404873 191.72842551 75 194 C75.36125977 193.55833496 75.72251953 193.11666992 76.09472656 192.66162109 C97.79877928 166.15196479 97.79877928 166.15196479 109.16845703 154.26074219 C111.61594996 151.66731698 113.64798461 149.32436725 115 146 C105.68161888 137.69914326 96.16647698 129.86775277 86.08007812 122.51806641 C83.97824845 120.98412546 81.88727807 119.43618418 79.796875 117.88671875 C60.38049988 103.58095679 40.02610768 90.79686878 19 79 C17.9162207 78.3915625 16.83244141 77.783125 15.71582031 77.15625 C-10.28255473 62.6665896 -37.24687258 50.71041478 -65 40 C-52.77465073 27.60093351 -38.59682501 18.38089935 -24 9 C-23.12891602 8.43522949 -22.25783203 7.87045898 -21.36035156 7.28857422 C-19.06716568 5.81333707 -16.75824663 4.36887596 -14.4375 2.9375 C-13.77854736 2.51404297 -13.11959473 2.09058594 -12.44067383 1.65429688 C-7.79214156 -1.12915428 -5.20747552 -1.11896449 0 0 Z M160 189 C154.41668812 194.34572414 149.34022719 199.88834612 144.51171875 205.921875 C141.6084732 209.47981823 138.59186539 212.92463252 135.5625 216.375 C129.73745681 223.02987493 124.29183114 229.91635245 119 237 C120.54326422 240.62041445 122.73902705 243.03404768 125.4375 245.875 C130.80113755 251.64003141 135.63351733 257.74268615 140.43603516 263.97705078 C142.17029706 266.22027497 143.91820029 268.45244596 145.66796875 270.68359375 C146.92457498 272.28898751 148.18108648 273.89445542 149.4375 275.5 C150.02885742 276.2535376 150.62021484 277.0070752 151.22949219 277.78344727 C154.32952388 281.7588604 157.2702265 285.76113796 160 290 C163.30099939 286.91558202 165.83474194 283.52041496 168.375 279.8125 C175.45758235 269.69836797 183.42029487 260.28277238 191.4921875 250.94921875 C192.04148926 250.31371094 192.59079102 249.67820313 193.15673828 249.0234375 C194.18960061 247.83325597 195.2267852 246.64680627 196.26904297 245.46484375 C198.62879467 242.75765907 200.47841084 240.24359334 202 237 C201.61779297 236.5373877 201.23558594 236.07477539 200.84179688 235.59814453 C199.06040935 233.44107931 197.28006349 231.28315798 195.5 229.125 C194.85579102 228.34431152 194.21158203 227.56362305 193.54785156 226.75927734 C190.24100547 222.74524931 186.96328774 218.71463894 183.75 214.625 C180.16154398 210.10677273 176.30849353 205.86200068 172.3984375 201.62109375 C169.68667546 198.65758833 167.06716125 195.62482693 164.47265625 192.55859375 C162.88465213 190.76144919 162.88465213 190.76144919 160 189 Z M83 291 C75.41460496 304.20562572 68.1019277 317.4935169 61.3125 331.125 C60.7251709 332.30288086 60.1378418 333.48076172 59.53271484 334.69433594 C58.00309761 337.78757184 56.4967391 340.89075795 55 344 C54.6395459 344.71897461 54.2790918 345.43794922 53.90771484 346.17871094 C52.65357423 348.80879464 51.98864284 350.7148092 52.10546875 353.6484375 C53.15420046 356.40536541 54.4870077 358.30439488 56.3125 360.625 C69.10270729 377.6556882 79.50195641 396.46095577 88.72705078 415.61499023 C89.12520996 416.43169189 89.52336914 417.24839355 89.93359375 418.08984375 C90.28478271 418.82066162 90.63597168 419.55147949 90.99780273 420.30444336 C91.89602097 422.1740203 91.89602097 422.1740203 94 423 C94.36798706 421.92407593 94.36798706 421.92407593 94.7434082 420.82641602 C101.44420194 401.35528022 108.90843096 382.43955537 117.953125 363.9140625 C118.65791992 362.46567993 118.65791992 362.46567993 119.37695312 360.98803711 C120.26947571 359.16760208 121.17381728 357.35289767 122.09179688 355.54516602 C122.68831055 354.33751587 122.68831055 354.33751587 123.296875 353.10546875 C123.82812988 352.05588989 123.82812988 352.05588989 124.37011719 350.98510742 C125.14661401 348.53793854 124.88448812 347.38761013 124 345 C122.61624362 342.52838483 121.19955567 340.14072161 119.6875 337.75 C119.24599609 337.04834717 118.80449219 336.34669434 118.34960938 335.6237793 C113.32273049 327.76183186 107.7019406 320.37875752 102 313 C101.08661725 311.80776819 100.17383533 310.61507578 99.26171875 309.421875 C97.60165078 307.25249619 95.93417686 305.08960924 94.26171875 302.9296875 C92.79347874 301.0278222 91.33698914 299.11680557 89.89453125 297.1953125 C89.26933594 296.36773437 88.64414062 295.54015625 88 294.6875 C87.46375 293.96949219 86.9275 293.25148438 86.375 292.51171875 C85.694375 291.76341797 85.694375 291.76341797 85 291 C84.34 291 83.68 291 83 291 Z M236 291 C234.31054909 292.94179148 232.74246623 294.89121809 231.1875 296.9375 C230.70466553 297.56430664 230.22183105 298.19111328 229.72436523 298.83691406 C228.68382713 300.18929793 227.64592019 301.54370941 226.61035156 302.89990234 C225.02189007 304.97145264 223.41580855 307.02807309 221.8046875 309.08203125 C214.48589129 318.46158821 207.68285778 328.10207952 201.24951172 338.11083984 C200.44791942 339.32278225 199.61303466 340.51370661 198.73876953 341.67431641 C196.45356921 344.69752148 196.45356921 344.69752148 196.25415039 348.36157227 C197.03210362 351.1135659 198.05062734 353.45414878 199.3359375 356.0078125 C199.81780518 356.98081299 200.29967285 357.95381348 200.79614258 358.95629883 C201.577677 360.52480591 201.577677 360.52480591 202.375 362.125 C212.01531362 381.85350829 220.04456363 402.18116827 227 423 C230.0980333 420.10073912 231.69851867 416.85161572 233.5 413.0625 C243.17192702 393.29328134 253.80830073 373.33673324 267.76953125 356.2265625 C269.39844123 353.2790111 268.8814044 352.2167543 268 349 C267.11954511 346.92081592 266.17633068 344.86771779 265.19140625 342.8359375 C264.76788124 341.95765541 264.76788124 341.95765541 264.33580017 341.06163025 C263.41762217 339.16297631 262.4906056 337.26881857 261.5625 335.375 C260.92440089 334.06408432 260.28638055 332.7531303 259.6484375 331.44213867 C250.07927308 310.47191876 250.07927308 310.47191876 238 291 C237.34 291 236.68 291 236 291 Z " fill="#62BC6E" transform="translate(187,1)"/>
<path d="M0 0 C2.59405356 1.04527145 5.0354103 2.12213766 7.53125 3.359375 C8.23613556 3.70006516 8.94102112 4.04075531 9.66726685 4.39176941 C11.95037811 5.50023738 14.22548254 6.62401514 16.5 7.75 C17.2797821 8.13237823 18.05956421 8.51475647 18.86297607 8.90872192 C31.37766764 15.04703295 43.62254678 21.5302849 55.63330078 28.61230469 C57.7831854 29.87287248 59.94664033 31.10278842 62.12109375 32.3203125 C97.23289582 52.16479324 129.14243384 77.20458256 160 103 C164.82336735 99.50069427 169.42037107 95.82171734 173.9375 91.9375 C181.05835937 85.84276772 188.46786361 80.15728109 195.96240234 74.53173828 C197.76897215 73.17367227 199.56686869 71.8050369 201.36328125 70.43359375 C220.90180473 55.6716052 241.75300215 42.1557567 263 30 C263.72977051 29.58137695 264.45954102 29.16275391 265.21142578 28.73144531 C270.43612281 25.74955071 275.70333286 22.85188886 281 20 C281.89090332 19.52030762 282.78180664 19.04061523 283.69970703 18.54638672 C294.04853693 13.00217976 304.47178474 7.62567835 315.125 2.6875 C315.94790527 2.29618896 316.77081055 1.90487793 317.61865234 1.50170898 C323.17097129 -1.00994337 323.17097129 -1.00994337 326.60546875 -0.96875 C329.94639338 0.38288019 333.0691975 2.01915803 336.1875 3.8125 C336.88238525 4.20920898 337.57727051 4.60591797 338.29321289 5.01464844 C355.22089457 14.82987467 371.05007047 26.39470228 386 39 C383.00094175 41.46272387 380.17035662 42.86196095 376.5390625 44.20703125 C375.44335938 44.62114258 374.34765625 45.03525391 373.21875 45.46191406 C371.43984375 46.1304541 371.43984375 46.1304541 369.625 46.8125 C331.46365218 61.44352069 294.57990575 80.70394039 261 104 C260.2884375 104.48903809 259.576875 104.97807617 258.84375 105.48193359 C240.50341844 118.0946332 222.82567861 131.4177452 206 146 C207.41738489 149.25207092 209.12526412 151.31361067 211.6875 153.75 C215.69175716 157.66096801 219.3737572 161.73934494 223 166 C223.82371094 166.95777344 224.64742188 167.91554687 225.49609375 168.90234375 C228.35981227 172.24420743 231.18918256 175.61355076 234 179 C234.51804199 179.62374512 235.03608398 180.24749023 235.56982422 180.89013672 C237.12148303 182.77118192 238.65680286 184.66437556 240.1875 186.5625 C240.66928711 187.14596191 241.15107422 187.72942383 241.64746094 188.33056641 C244.24324476 191.58908331 245 192.68356828 245 197 C243.73754883 198.640625 243.73754883 198.640625 241.95703125 200.25 C241.3019458 200.85207275 240.64686035 201.45414551 239.97192383 202.07446289 C239.25931396 202.70989014 238.5467041 203.34531738 237.8125 204 C237.08506592 204.66572021 236.35763184 205.33144043 235.6081543 206.01733398 C233.41481932 208.0221961 231.20949443 210.01297531 229 212 C226.76547754 214.01501771 224.53501307 216.0342408 222.3125 218.0625 C221.54123779 218.76584473 221.54123779 218.76584473 220.75439453 219.48339844 C214.46738728 225.29981542 208.73915988 231.65029119 203 238 C199.34677051 234.43892405 195.96429867 230.72455463 192.6875 226.8125 C192.20676025 226.24225098 191.72602051 225.67200195 191.23071289 225.08447266 C188.409142 221.72454172 185.65158056 218.32276493 182.9375 214.875 C179.28946859 210.27010789 175.38579734 205.94138928 171.3984375 201.62890625 C168.65470598 198.62152627 166.04538233 195.5175572 163.47265625 192.36328125 C161.96755064 190.6603348 161.96755064 190.6603348 159 191 C153.73741623 194.99465556 149.69016877 200.74263509 145.58203125 205.8515625 C142.66963969 209.44186797 139.61130893 212.90066236 136.5625 216.375 C131.60986389 222.04355037 126.90486318 227.83825761 122.37890625 233.8515625 C120.82671506 235.90585823 119.25200902 237.94338962 117.65234375 239.9609375 C82.78500988 284.06953222 56.2291857 337.38019657 37 390 C36.59136719 391.10972168 36.18273437 392.21944336 35.76171875 393.36279297 C19.69863135 437.52990907 10.74252974 484.33614543 6 531 C5.88672363 532.09296387 5.77344727 533.18592773 5.65673828 534.31201172 C3.1045088 560.08831986 3.34772152 586.1231099 3 612 C-18.31599171 605.10080944 -43.209485 588.790515 -59 573 C-59.37831801 570.19564271 -59.65409774 567.44227181 -59.875 564.625 C-64.84846639 512.43076679 -90.85373816 461.72778712 -131.44140625 428.09375 C-134.89685065 425.3089601 -138.43669878 422.64450613 -142 420 C-142.56831543 419.57090332 -143.13663086 419.14180664 -143.72216797 418.69970703 C-153.17160105 411.57960639 -163.69712896 403.76762368 -175 400 C-175.97077407 397.49790812 -176.70615276 395.14945096 -177.375 392.5625 C-177.58487549 391.77697754 -177.79475098 390.99145508 -178.01098633 390.18212891 C-183.15261815 370.26141044 -187.23092356 349.6175086 -187 329 C-146.56217192 341.34196211 -110.40084643 362.65878858 -80 392 C-79.32501465 392.64775391 -78.6500293 393.29550781 -77.95458984 393.96289062 C-69.00425883 402.59176181 -60.61871273 411.33231541 -53.22753906 421.34033203 C-51.95553362 423.06011982 -50.66387329 424.76360351 -49.3671875 426.46484375 C-43.22325342 434.55349316 -43.22325342 434.55349316 -42 437 C-41.68885254 435.87956299 -41.37770508 434.75912598 -41.05712891 433.60473633 C-39.59076713 428.33754527 -38.11040517 423.07434957 -36.625 417.8125 C-36.35732819 416.86315582 -36.08965637 415.91381165 -35.81387329 414.93569946 C-31.95974795 401.31554288 -27.80065011 387.89011696 -22.85986328 374.62231445 C-22.46653809 373.54425537 -22.07321289 372.46619629 -21.66796875 371.35546875 C-21.32016357 370.43403076 -20.9723584 369.51259277 -20.61401367 368.56323242 C-19.89182051 365.54839901 -19.98399287 363.92545545 -21 361 C-22.67151648 358.74835075 -22.67151648 358.74835075 -24.8671875 356.671875 C-26.06432373 355.47848511 -26.06432373 355.47848511 -27.28564453 354.26098633 C-28.56737549 353.0180481 -28.56737549 353.0180481 -29.875 351.75 C-30.74108887 350.89752686 -31.60717773 350.04505371 -32.49951172 349.16674805 C-37.69822417 344.09593656 -42.95753647 339.27608275 -48.69140625 334.81640625 C-50.92842149 333.05631812 -52.98396683 331.19288993 -55.0625 329.25 C-88.66319587 299.17051382 -131.43998551 280.59319705 -173.86376953 267.0078125 C-177.92033706 265.70425413 -181.96087455 264.35652007 -186 263 C-185.09927704 252.268973 -183.29041902 241.79714217 -181.125 231.25 C-180.88056152 230.04384033 -180.63612305 228.83768066 -180.38427734 227.5949707 C-178.69972366 219.5711755 -176.54506323 211.7927335 -174 204 C-123.88037549 208.47929011 -70.71157797 240.59139636 -31 270 C-30.45923828 270.40041504 -29.91847656 270.80083008 -29.36132812 271.21337891 C-16.60057043 280.72267103 -4.69068604 291.2159386 7 302 C7.31114746 301.42781738 7.62229492 300.85563477 7.94287109 300.26611328 C11.08642853 294.4877356 14.23675594 288.71309491 17.39257812 282.94140625 C18.39263183 281.11141734 19.39153941 279.28080103 20.38867188 277.44921875 C26.23198628 266.72313477 32.41306075 256.28683704 39 246 C17.02511829 223.57913361 -10.68141312 205.50302431 -37.91601562 190.17871094 C-40.06469956 188.96340564 -42.19605304 187.72074494 -44.328125 186.4765625 C-74.07812062 169.36238592 -106.13899589 157.13477625 -139.00561523 147.51000977 C-140.02727783 147.20764404 -141.04894043 146.90527832 -142.1015625 146.59375 C-143.00213379 146.33271484 -143.90270508 146.07167969 -144.83056641 145.80273438 C-147 145 -147 145 -149 143 C-140.7518116 126.76359476 -130.92784526 111.56424428 -120 97 C-119.6194043 96.41911621 -119.23880859 95.83823242 -118.84667969 95.23974609 C-117.6484375 93.54296875 -117.6484375 93.54296875 -115 91 C-110.20815726 91.30719244 -105.96025691 92.53098306 -101.44921875 94.1171875 C-100.20688477 94.55337402 -98.96455078 94.98956055 -97.68457031 95.43896484 C-96.35186201 95.91666364 -95.01951358 96.39536746 -93.6875 96.875 C-92.66215149 97.24180878 -92.66215149 97.24180878 -91.61608887 97.61602783 C-60.13199983 108.90658976 -29.76669775 122.91703885 -1 140 C-0.10587402 140.53093262 0.78825195 141.06186523 1.70947266 141.60888672 C24.1426479 155.02636506 45.48327401 170.19251852 65.5078125 187 C68.58499357 189.46946192 71.77404873 191.72842551 75 194 C75.36125977 193.55833496 75.72251953 193.11666992 76.09472656 192.66162109 C97.79877928 166.15196479 97.79877928 166.15196479 109.16845703 154.26074219 C111.61594996 151.66731698 113.64798461 149.32436725 115 146 C105.68161888 137.69914326 96.16647698 129.86775277 86.08007812 122.51806641 C83.97824845 120.98412546 81.88727807 119.43618418 79.796875 117.88671875 C60.38049988 103.58095679 40.02610768 90.79686878 19 79 C17.9162207 78.3915625 16.83244141 77.783125 15.71582031 77.15625 C-10.28255473 62.6665896 -37.24687258 50.71041478 -65 40 C-52.77465073 27.60093351 -38.59682501 18.38089935 -24 9 C-23.12891602 8.43522949 -22.25783203 7.87045898 -21.36035156 7.28857422 C-19.06716568 5.81333707 -16.75824663 4.36887596 -14.4375 2.9375 C-13.77854736 2.51404297 -13.11959473 2.09058594 -12.44067383 1.65429688 C-7.79214156 -1.12915428 -5.20747552 -1.11896449 0 0 Z " fill="#62BC6E" transform="translate(187,1)"/>
<path d="M0 0 C3.51543282 10.60851852 6.044816 21.36358751 8.25 32.3125 C8.50797363 33.57465332 8.76594727 34.83680664 9.03173828 36.13720703 C10.53141049 43.75131125 11.55144046 51.25158245 12 59 C6.65642035 60.80080988 1.29837744 62.54203494 -4.078125 64.2421875 C-55.63690224 80.68246538 -101.06010358 107.1892158 -140.36083984 144.46191406 C-142.0608361 146.05708481 -143.78890036 147.61786366 -145.51953125 149.1796875 C-146.63914688 150.22275095 -147.75767513 151.26698307 -148.875 152.3125 C-149.40552979 152.77970459 -149.93605957 153.24690918 -150.48266602 153.72827148 C-152.16284295 155.25138436 -152.16284295 155.25138436 -154 158 C-153.65371541 163.10081473 -152.25155003 167.71481642 -150.55859375 172.50390625 C-150.05535453 173.96812742 -149.5525232 175.43248883 -149.05004883 176.89697266 C-148.78656647 177.6584259 -148.52308411 178.41987915 -148.25161743 179.20440674 C-142.62603966 195.49890741 -137.82619562 211.86509506 -133.6574707 228.59033203 C-133.08807334 230.98719236 -133.08807334 230.98719236 -132 233 C-131.27296875 231.93523437 -130.5459375 230.87046875 -129.796875 229.7734375 C-113.79802774 206.56554898 -94.08587022 184.39750098 -71 168 C-69.63362472 167.00197239 -68.26776723 166.00323564 -66.90234375 165.00390625 C-57.89825104 158.47476583 -48.67653763 152.47954529 -39 147 C-38.37254883 146.63841797 -37.74509766 146.27683594 -37.09863281 145.90429688 C-28.06865822 140.73519481 -18.77600345 136.51033017 -9.125 132.625 C-8.09133301 132.20806885 -7.05766602 131.7911377 -5.99267578 131.36157227 C0.57376161 128.78118648 7.15480349 126.70665689 14 125 C8.33868973 184.65878888 8.33868973 184.65878888 0.4296875 195.06640625 C-3.07340293 197.85423545 -6.89857001 199.90608181 -10.8125 202.0625 C-19.72460896 207.10561523 -27.97300698 212.64967541 -36 219 C-36.54817383 219.43248047 -37.09634766 219.86496094 -37.66113281 220.31054688 C-81.08448438 254.95545245 -107.51197131 304.96580348 -114 360 C-114.04640625 360.78616699 -114.0928125 361.57233398 -114.140625 362.38232422 C-114.54483835 368.40732143 -114.54483835 368.40732143 -116.8359375 371.390625 C-117.67382812 372.00421875 -118.51171875 372.6178125 -119.375 373.25 C-120.36757813 373.98734375 -121.36015625 374.7246875 -122.3828125 375.484375 C-123.58684469 376.32535148 -124.79273295 377.16367398 -126 378 C-126.70608398 378.50080078 -127.41216797 379.00160156 -128.13964844 379.51757812 C-141.07574148 388.68593063 -154.36290078 397.03300105 -168.3125 404.5625 C-169.27397949 405.08324097 -169.27397949 405.08324097 -170.25488281 405.61450195 C-174.75545312 408 -174.75545312 408 -177 408 C-177.00586624 407.44989258 -177.01173248 406.89978516 -177.01777649 406.33300781 C-176.06069477 312.50677665 -176.06069477 312.50677665 -200 223 C-226.85252434 270.60521599 -239.71601523 324.56704538 -240.31640625 379.01953125 C-240.33703591 380.61521366 -240.35803366 382.21089134 -240.37937927 383.80656433 C-240.43398051 387.96070476 -240.48365686 392.11488927 -240.53222656 396.269104 C-240.5829007 400.52644671 -240.63834448 404.78372719 -240.69335938 409.04101562 C-240.80018048 417.36062412 -240.90178685 425.68028545 -241 434 C-269.08657423 440.66078344 -269.08657423 440.66078344 -281.0625 442.375 C-282.10986328 442.53871094 -283.15722656 442.70242188 -284.23632812 442.87109375 C-290.22322929 443.76555858 -295.95353028 444.07975016 -302 444 C-302.07058429 433.47008338 -302.12334604 422.94022612 -302.15543652 412.4101181 C-302.17086495 407.51665185 -302.19166526 402.62335134 -302.22631836 397.72998047 C-302.74065121 323.05027094 -288.61968066 249.91125479 -250 185 C-249.47696289 184.11183594 -248.95392578 183.22367188 -248.41503906 182.30859375 C-241.71114785 170.98646637 -234.54834173 160.18641889 -226.43212891 149.82910156 C-225.02994902 148.0382506 -223.64432105 146.23567755 -222.26171875 144.4296875 C-205.43544064 122.57378232 -186.47803066 100.38788016 -164.7890625 83.23046875 C-162.29404664 81.23515494 -159.87772947 79.17088608 -157.47045898 77.07128906 C-149.41299068 70.08280699 -140.82592205 63.97527872 -132 58 C-131.2383252 57.48179687 -130.47665039 56.96359375 -129.69189453 56.4296875 C-95.45527983 33.26773696 -42.93541413 0 0 0 Z " fill="#62BC6D" transform="translate(682,205)"/>
<path d="M0 0 C1.09689148 -0.00101212 1.09689148 -0.00101212 2.21594238 -0.00204468 C32.74141491 0.04249071 62.36951816 5.79323697 89.4375 20.25 C88.12054709 26.78588201 86.29267344 32.85805503 83.9609375 39.09765625 C83.63082672 39.99495956 83.30071594 40.89226288 82.96060181 41.8167572 C81.91662414 44.65069562 80.86471072 47.48160951 79.8125 50.3125 C79.09842928 52.24654954 78.38488253 54.18079262 77.671875 56.11523438 C75.93313038 60.82908115 74.18726791 65.54023451 72.4375 70.25 C68.31915867 69.49718024 64.94328096 68.24088486 61.125 66.5 C31.95783368 53.68611878 -1.98652114 50.0953096 -32.20703125 61.67578125 C-49.08251211 69.59291604 -59.45373512 82.95807989 -65.8125 100.3125 C-75.7824801 129.47152233 -74.89450797 164.68827937 -61.9296875 192.7890625 C-58.85588644 198.78504215 -55.55697719 203.92819594 -50.84765625 208.76171875 C-49.5625 210.25 -49.5625 210.25 -49.5625 212.25 C-48.99660156 212.51167969 -48.43070313 212.77335938 -47.84765625 213.04296875 C-45.36887127 214.35227569 -43.24961143 215.89104242 -41 217.5625 C-19.03332158 233.00982796 4.51598161 229.25 31.4375 229.25 C31.4375 197.9 31.4375 166.55 31.4375 134.25 C51.8975 134.25 72.3575 134.25 93.4375 134.25 C93.4375 178.8 93.4375 223.35 93.4375 269.25 C87.72033464 272.10858268 82.75642806 273.67942244 76.625 275.1875 C75.58053711 275.44619873 74.53607422 275.70489746 73.45996094 275.97143555 C51.23878184 281.3048497 29.28965777 283.44726343 6.49536133 283.49023438 C3.40613483 283.49990256 0.31758581 283.53099143 -2.77148438 283.5625 C-35.25088106 283.73559126 -65.85817632 275.90221226 -91.5625 255.25 C-92.81740234 254.25033203 -92.81740234 254.25033203 -94.09765625 253.23046875 C-100.04616584 248.2206605 -104.8450755 242.40958374 -109.5625 236.25 C-110.47322266 235.08017578 -110.47322266 235.08017578 -111.40234375 233.88671875 C-136.4094312 200.14699759 -141.30840897 153.67704774 -135.5625 113.25 C-130.64867545 84.57953654 -118.54849933 59.44296909 -98.5625 38.25 C-97.95019531 37.57324219 -97.33789062 36.89648438 -96.70703125 36.19921875 C-72.12038942 10.03987062 -34.77473435 0.02884693 0 0 Z " fill="#62BD6D" transform="translate(1594.5625,68.75)"/>
<path d="M0 0 C2.33649178 0.00536004 4.67279139 0.00002681 7.00927734 -0.00634766 C14.67793959 -0.00940534 22.22088576 0.17019782 29.84130859 1.13037109 C34.14384568 11.26211147 38.15961862 21.4992034 42.15380859 31.75537109 C42.50100952 32.64574066 42.84821045 33.53611023 43.20593262 34.45346069 C49.06685994 49.48800615 54.83557659 64.55649255 60.56616211 79.64111328 C65.87353509 93.60913826 71.22384107 107.56033409 76.59130859 121.50537109 C77.22064804 123.14070801 77.22064804 123.14070801 77.86270142 124.80908203 C81.27295778 133.67028695 84.68490228 142.53084156 88.09710693 151.39129639 C90.99183437 158.90816981 93.88586804 166.42530978 96.77880859 173.94287109 C97.18434967 174.99666962 97.58989075 176.05046814 98.00772095 177.13619995 C105.69024458 197.10336171 113.32804862 217.08747121 120.95239258 237.0769043 C121.37384048 238.18170639 121.79528839 239.28650848 122.22950745 240.42478943 C123.03695601 242.54209965 123.84396921 244.65957597 124.65049744 246.77723694 C126.26884429 251.02403097 127.89009857 255.26922052 129.54492188 259.50195312 C130.00495605 260.67999512 130.46499023 261.85803711 130.93896484 263.07177734 C131.31674072 264.02898682 131.6945166 264.98619629 132.08374023 265.97241211 C132.84130859 268.13037109 132.84130859 268.13037109 132.84130859 270.13037109 C113.37130859 270.13037109 93.90130859 270.13037109 73.84130859 270.13037109 C71.69630859 264.08724609 69.55130859 258.04412109 67.34130859 251.81787109 C66.66261719 249.91352295 65.98392578 248.0091748 65.28466797 246.04711914 C64.75109196 244.5372411 64.21786492 243.02723967 63.68505859 241.51708984 C63.40436523 240.73354126 63.12367188 239.94999268 62.83447266 239.1427002 C61.73782727 236.0229851 60.84130859 233.46301942 60.84130859 230.13037109 C21.77763789 223.3815662 -15.14169554 222.29503752 -54.15869141 230.13037109 C-54.31217041 230.67169678 -54.46564941 231.21302246 -54.6237793 231.77075195 C-56.77433154 239.15605203 -59.2616603 246.41186339 -61.86499023 253.6472168 C-62.35736772 255.02472296 -62.84292347 256.40468439 -63.32202148 257.78686523 C-64.02181723 259.8043136 -64.74202557 261.81336496 -65.46728516 263.82177734 C-65.8880835 265.009729 -66.30888184 266.19768066 -66.74243164 267.42163086 C-68.15869141 270.13037109 -68.15869141 270.13037109 -70.16601562 271.00488281 C-70.82359863 271.04629395 -71.48118164 271.08770508 -72.15869141 271.13037109 C-73.00818359 271.23478516 -73.85767578 271.33919922 -74.73291016 271.44677734 C-115.53394496 274.67195324 -115.53394496 274.67195324 -129.15869141 270.13037109 C-127.22098926 263.3288083 -124.96349468 256.73808568 -122.37744141 250.15771484 C-122.01204758 249.21859756 -121.64665375 248.27948029 -121.27018738 247.31190491 C-120.06987308 244.22917617 -118.86423551 241.14855795 -117.65869141 238.06787109 C-116.80386605 235.87467325 -115.94946313 233.68131071 -115.09545898 231.48779297 C-113.32474716 226.94075394 -111.55223463 222.39442339 -109.77832031 217.84863281 C-106.17362742 208.60828241 -102.58705699 199.36091809 -99.00228882 190.11282349 C-97.83249212 187.09503024 -96.6622357 184.07741553 -95.49194336 181.05981445 C-89.42860493 165.42235923 -83.38428151 149.77759066 -77.34619141 134.13037109 C-76.88872528 132.9449472 -76.43125916 131.75952332 -75.95993042 130.53817749 C-71.27651445 118.40153917 -66.59518858 106.26409787 -61.91775513 94.12515259 C-52.99533259 70.97053141 -44.06677373 47.81829756 -35.0447998 24.70223999 C-34.25122349 22.66841277 -33.45848686 20.63425769 -32.66662598 18.59976196 C-31.58722989 15.8276608 -30.50439509 13.05693049 -29.42041016 10.28662109 C-29.10176498 9.46675217 -28.78311981 8.64688324 -28.45481873 7.8021698 C-26.27335071 2.2450304 -26.27335071 2.2450304 -25.15869141 1.13037109 C-16.9258919 -0.4078625 -8.34346028 -0.02276285 0 0 Z M1.84130859 76.13037109 C1.52718018 76.98300537 1.21305176 77.83563965 0.8894043 78.71411133 C0.17545532 80.65197284 -0.53849688 82.58983316 -1.25248718 84.52767944 C-2.72690781 88.52948619 -4.20106039 92.5313914 -5.67480469 96.53344727 C-9.21674466 106.15080748 -12.76225197 115.76683988 -16.31312561 125.38090515 C-18.00130041 129.9518156 -19.6883356 134.52314642 -21.3751173 139.09457111 C-22.57606422 142.34908436 -23.77764032 145.60336268 -24.9805603 148.85714722 C-26.34114437 152.53742865 -27.6992208 156.21863267 -29.05712891 159.89990234 C-29.47210129 161.02109467 -29.88707367 162.14228699 -30.31462097 163.29745483 C-30.6903273 164.31715363 -31.06603363 165.33685242 -31.453125 166.38745117 C-31.78396088 167.28321365 -32.11479675 168.17897614 -32.45565796 169.10188293 C-33.21326976 170.93003754 -33.21326976 170.93003754 -33.15869141 172.13037109 C-31.76553711 172.02426514 -31.76553711 172.02426514 -30.34423828 171.91601562 C-20.27439079 171.21072965 -10.26110911 170.97439789 -0.16796875 171 C2.33909141 171.00536635 4.84597251 171.0000117 7.35302734 170.99365234 C17.55608476 170.98990232 27.66625727 171.3554149 37.84130859 172.13037109 C35.67545199 164.51908384 33.09008149 157.11127752 30.34130859 149.69287109 C29.65790405 147.83867554 29.65790405 147.83867554 28.96069336 145.94702148 C27.26064024 141.33909034 25.55136904 136.73459617 23.84130859 132.13037109 C23.46786316 131.12470093 23.09441772 130.11903076 22.70965576 129.08288574 C19.73603264 121.07664236 16.7585888 113.07182483 13.77880859 105.06787109 C13.13878906 103.34855881 13.13878906 103.34855881 12.48583984 101.59451294 C11.2600583 98.30278857 10.03330278 95.01142911 8.80615234 91.72021484 C8.25053871 90.22825089 8.25053871 90.22825089 7.68370056 88.70614624 C7.3385994 87.78129425 6.99349823 86.85644226 6.63793945 85.90356445 C6.18806923 84.69693398 6.18806923 84.69693398 5.72911072 83.46592712 C4.79509191 81.00878809 3.82427434 78.56829578 2.84130859 76.13037109 C2.51130859 76.13037109 2.18130859 76.13037109 1.84130859 76.13037109 Z " fill="#62BC6D" transform="translate(955.15869140625,75.86962890625)"/>
<path d="M0 0 C21.62746352 18.64544751 30.56234376 44.02854439 32.94140625 71.84375 C33.8089371 83.97443637 33.92949288 96.62003267 32.25 108.6875 C31.25 109.6875 31.25 109.6875 29.08107662 109.81054783 C28.11595937 109.80962604 27.15084211 109.80870424 26.15647888 109.80775452 C24.50103561 109.80981651 24.50103561 109.80981651 22.81214905 109.81192017 C21.59079758 109.80832489 20.36944611 109.80472961 19.11108398 109.80102539 C17.83322021 109.80117142 16.55535645 109.80131744 15.23876953 109.8014679 C11.72446409 109.80175585 8.2101925 109.7958594 4.69589496 109.78889394 C1.02700644 109.78266012 -2.64188277 109.78205658 -6.31077576 109.78086853 C-13.26290435 109.7777553 -20.2150173 109.76954202 -27.16713899 109.75951904 C-35.0799478 109.74835766 -42.99275734 109.74284739 -50.90557206 109.73782361 C-67.18705721 109.7273594 -83.46852661 109.70976011 -99.75 109.6875 C-99.14301924 111.75576571 -98.52820702 113.82173402 -97.91015625 115.88671875 C-97.39787476 117.61281372 -97.39787476 117.61281372 -96.87524414 119.3737793 C-93.32653119 129.82435012 -85.84836283 136.11712944 -76.1328125 141.00390625 C-49.59617172 152.20551007 -16.13274244 146.94460261 10.25 137.6875 C11.24 137.6875 12.23 137.6875 13.25 137.6875 C14.2311325 143.23718599 15.2096407 148.78732613 16.18579102 154.33789062 C16.51776396 156.22343232 16.85043553 158.10885116 17.18383789 159.99414062 C17.66479258 162.71451811 18.14317712 165.43533735 18.62109375 168.15625 C18.76904892 168.98991089 18.91700409 169.82357178 19.06944275 170.68249512 C19.9429903 175.67311872 20.66137061 180.65509763 21.25 185.6875 C-15.67816214 201.92027218 -64.44921771 204.45644546 -102.3125 190 C-114.29364507 185.16536584 -124.61314012 177.79328213 -133.75 168.6875 C-134.50796875 167.95273437 -135.2659375 167.21796875 -136.046875 166.4609375 C-145.06576904 157.16214675 -150.9765923 145.87635337 -155.125 133.6875 C-155.46470825 132.69459961 -155.46470825 132.69459961 -155.8112793 131.68164062 C-159.77909214 119.12062771 -161.2541479 106.57415778 -161.14111328 93.46069336 C-161.12502744 91.25376403 -161.14107876 89.04867161 -161.16015625 86.84179688 C-161.1993102 60.29725572 -153.19990586 32.44055906 -134.75 12.6875 C-133.95335937 11.800625 -133.15671875 10.91375 -132.3359375 10 C-99.03470022 -25.36414579 -38.37110436 -30.25927145 0 0 Z M-86.75 38.6875 C-87.36746094 39.25210938 -87.98492188 39.81671875 -88.62109375 40.3984375 C-96.27381786 48.19927886 -98.44036103 58.29412465 -100.75 68.6875 C-75.34 68.6875 -49.93 68.6875 -23.75 68.6875 C-27.0492511 49.90259914 -27.0492511 49.90259914 -38.6015625 36.12109375 C-53.11836327 26.43442851 -73.73987002 26.58890779 -86.75 38.6875 Z " fill="#63BC6E" transform="translate(1410.75,154.3125)"/>
<path d="M0 0 C74.58 0 149.16 0 226 0 C226 17.49 226 34.98 226 53 C198.94 53 171.88 53 144 53 C144 125.27 144 197.54 144 272 C123.54 272 103.08 272 82 272 C82 199.73 82 127.46 82 53 C54.94 53 27.88 53 0 53 C0 35.51 0 18.02 0 0 Z " fill="#63BD6E" transform="translate(1051,75)"/>
<path d="M0 0 C-5.84989941 58.90695718 -5.84989941 58.90695718 -13.5703125 69.06640625 C-17.07340293 71.85423545 -20.89857001 73.90608181 -24.8125 76.0625 C-33.72460896 81.10561523 -41.97300698 86.64967541 -50 93 C-50.54817383 93.43248047 -51.09634766 93.86496094 -51.66113281 94.31054688 C-95.08448438 128.95545245 -121.51197131 178.96580348 -128 234 C-128.04640625 234.78616699 -128.0928125 235.57233398 -128.140625 236.38232422 C-128.54483835 242.40732143 -128.54483835 242.40732143 -130.8359375 245.390625 C-131.67382812 246.00421875 -132.51171875 246.6178125 -133.375 247.25 C-134.36757813 247.98734375 -135.36015625 248.7246875 -136.3828125 249.484375 C-137.58684469 250.32535148 -138.79273295 251.16367398 -140 252 C-140.70608398 252.50080078 -141.41216797 253.00160156 -142.13964844 253.51757812 C-155.07574148 262.68593063 -168.36290078 271.03300105 -182.3125 278.5625 C-182.95348633 278.90966064 -183.59447266 279.25682129 -184.25488281 279.61450195 C-188.75545312 282 -188.75545312 282 -191 282 C-191.41369015 210.88984494 -177.76943129 146.27527243 -133 89 C-132.27167969 88.06414062 -131.54335938 87.12828125 -130.79296875 86.1640625 C-117.58670717 69.90691981 -102.09257833 54.14056768 -85 42 C-83.63362472 41.00197239 -82.26776723 40.00323564 -80.90234375 39.00390625 C-71.89825104 32.47476583 -62.67653763 26.47954529 -53 21 C-52.37254883 20.63841797 -51.74509766 20.27683594 -51.09863281 19.90429688 C-36.7704619 11.70230505 -21.42441991 5.63171936 -5.875 0.1484375 C-4.81925781 -0.224021 -4.81925781 -0.224021 -3.7421875 -0.60400391 C-2 -1 -2 -1 0 0 Z " fill="#62BC6D" transform="translate(696,331)"/>
<path d="M0 0 C4.58944347 -0.24822252 9.17494986 -0.42906459 13.76953125 -0.54931641 C15.32979381 -0.59944922 16.88959003 -0.66758435 18.44824219 -0.75439453 C31.20078956 -1.44658261 31.20078956 -1.44658261 35.11889648 1.70361328 C36.78679828 4.38564663 37.86942069 7.05013389 39 10 C39.89724776 11.82280066 40.7955102 13.6451827 41.71208191 15.45834351 C43.47700462 18.98299201 45.13763693 22.55692006 46.8125 26.125 C47.35268265 27.26938538 47.35268265 27.26938538 47.90377808 28.43688965 C56.8314482 47.38099999 64.9526175 66.6692344 73 86 C75.8207737 82.63153398 77.45395635 78.95886062 79.1171875 74.9375 C79.72367825 73.49998483 80.33020654 72.06248551 80.93676758 70.625 C81.41045273 69.49384766 81.41045273 69.49384766 81.89370728 68.33984375 C91.64865307 45.07966015 102.00307789 22.20325882 114 0 C124.56 0 135.12 0 146 0 C153.04474636 50.06801874 155.31704768 100.55193384 158 151 C146.78 151 135.56 151 124 151 C123.3199307 146.23951489 122.82289951 141.85582012 122.62695312 137.09350586 C122.58525246 136.11621017 122.58525246 136.11621017 122.54270935 135.11917114 C122.45235863 132.98451569 122.36685785 130.84969418 122.28125 128.71484375 C122.21817846 127.21137485 122.15473593 125.70792147 122.09094238 124.20448303 C121.92399543 120.25297699 121.76087545 116.30132356 121.59893799 112.34960938 C121.34061404 106.05166844 121.07815536 99.75390526 120.81248474 93.45627022 C120.72146781 91.27983325 120.63312054 89.1033002 120.54504395 86.92674255 C120.17762757 71.36172563 120.17762757 71.36172563 118 56 C115.04771818 62.82275931 112.09801452 69.64662938 109.14990234 76.47119141 C108.15176427 78.78100372 107.15308739 81.0905833 106.15380859 83.39990234 C100.35175651 96.80947891 94.60143449 110.2353862 89.05215454 123.75195312 C88.66417694 124.69232422 88.27619934 125.63269531 87.87646484 126.6015625 C87.53674652 127.42994629 87.1970282 128.25833008 86.84701538 129.11181641 C86 131 86 131 85 132 C83.21928754 132.08726223 81.4351686 132.10699041 79.65234375 132.09765625 C78.57275391 132.09443359 77.49316406 132.09121094 76.38085938 132.08789062 C75.24455078 132.07951172 74.10824219 132.07113281 72.9375 132.0625 C71.79732422 132.05798828 70.65714844 132.05347656 69.48242188 132.04882812 C66.65489649 132.03699747 63.8274736 132.0205141 61 132 C55.12229826 120.95412534 50.43741028 109.41118603 45.625 97.875 C43.99472135 93.97549738 42.3618494 90.07709249 40.7265625 86.1796875 C40.33164612 85.23808777 39.93672974 84.29648804 39.52984619 83.32635498 C35.81235089 74.49431215 31.93599188 65.73651329 28 57 C27.67 57 27.34 57 27 57 C25.14003657 88.32549157 23.41436144 119.65109468 22 151 C10.78 151 -0.44 151 -12 151 C-12 138.61864117 -12 138.61864117 -11.69628906 133.42260742 C-11.59529655 131.6620401 -11.59529655 131.6620401 -11.49226379 129.86590576 C-11.41747299 128.62496155 -11.34268219 127.38401733 -11.265625 126.10546875 C-11.18680482 124.76663019 -11.10812913 123.42778311 -11.02958679 122.08892822 C-10.81906026 118.52468137 -10.60320708 114.96077903 -10.3851738 111.3969841 C-10.24931638 109.17632589 -10.11440647 106.95561134 -9.97952271 104.7348938 C-4.39908024 13.19724073 -4.39908024 13.19724073 0 0 Z " fill="#00796E" transform="translate(1566,426)"/>
<path d="M0 0 C4.79184274 0.30719244 9.03974309 1.53098306 13.55078125 3.1171875 C14.79311523 3.55337402 16.03544922 3.98956055 17.31542969 4.43896484 C18.64813799 4.91666364 19.98048642 5.39536746 21.3125 5.875 C21.99606567 6.11953918 22.67963135 6.36407837 23.38391113 6.61602783 C54.86800017 17.90658976 85.23330225 31.91703885 114 49 C114.89412598 49.53093262 115.78825195 50.06186523 116.70947266 50.60888672 C142.71895644 66.16538648 167.10421397 84.15698544 190 104 C186.06795114 109.99294846 181.98463294 115.84289943 177.75 121.625 C170.0941562 132.15288394 162.79854942 142.89570262 156 154 C152.09240866 152.66786659 149.70241741 151.04964566 146.75 148.1875 C139.59991127 141.56862143 131.79422304 135.83190441 124 130 C123.35337402 129.51208984 122.70674805 129.02417969 122.04052734 128.52148438 C107.74299767 117.73961845 92.73736756 108.14703964 77.19677734 99.25927734 C75.74050517 98.42448607 74.28764081 97.58371962 72.83837891 96.73681641 C42.45128632 79.0104488 9.68515594 66.37612352 -24.00561523 56.51000977 C-25.02727783 56.20764404 -26.04894043 55.90527832 -27.1015625 55.59375 C-28.00213379 55.33271484 -28.90270508 55.07167969 -29.83056641 54.80273438 C-32 54 -32 54 -34 52 C-25.7518116 35.76359476 -15.92784526 20.56424428 -5 6 C-4.6194043 5.41911621 -4.23880859 4.83823242 -3.84667969 4.23974609 C-2.6484375 2.54296875 -2.6484375 2.54296875 0 0 Z " fill="#007A6F" transform="translate(72,92)"/>
<path d="M0 0 C30 0 30 0 37.86328125 4.86328125 C39.81044944 6.99096401 41.55719934 9.04951443 43.3125 11.3125 C44.24819594 12.38240194 45.19161474 13.44559821 46.14257812 14.50195312 C48.43284109 17.08522052 50.61426903 19.73566315 52.75991821 22.43969727 C54.76986197 24.96866009 56.82595478 27.45972452 58.875 29.95703125 C59.60307861 30.85091553 60.33115723 31.7447998 61.08129883 32.66577148 C63.23184238 35.28205179 65.45688175 37.82690004 67.6875 40.375 C72.2134785 45.79770123 76.19879688 51.50591724 80.125 57.375 C80.68662842 58.21208496 81.24825684 59.04916992 81.8269043 59.91162109 C86.58026723 67.12071562 90.69061268 74.45857218 95 82 C95.33 54.94 95.66 27.88 96 0 C105.9 0 115.8 0 126 0 C126 50.16 126 100.32 126 152 C116.1 152 106.2 152 96 152 C93.15956689 146.31913378 90.40727373 140.77070578 87.86962891 134.97607422 C74.26603832 103.91716047 56.16665371 71.16665371 32 47 C31.67 81.65 31.34 116.3 31 152 C27.19713572 152.63381071 24.19497021 153.12702644 20.46875 153.1328125 C19.65792969 153.13410156 18.84710937 153.13539063 18.01171875 153.13671875 C17.18285156 153.13285156 16.35398437 153.12898437 15.5 153.125 C14.25669922 153.13080078 14.25669922 153.13080078 12.98828125 153.13671875 C12.17746094 153.13542969 11.36664062 153.13414062 10.53125 153.1328125 C9.80486328 153.13168457 9.07847656 153.13055664 8.33007812 153.12939453 C5.53229165 152.97402709 2.76397156 152.46066193 0 152 C0 101.84 0 51.68 0 0 Z " fill="#00796F" transform="translate(1081,425)"/>
<path d="M0 0 C2.59405356 1.04527145 5.0354103 2.12213766 7.53125 3.359375 C8.58857834 3.87041023 8.58857834 3.87041023 9.66726685 4.39176941 C11.95037811 5.50023738 14.22548254 6.62401514 16.5 7.75 C17.2797821 8.13237823 18.05956421 8.51475647 18.86297607 8.90872192 C31.37766764 15.04703295 43.62254678 21.5302849 55.63330078 28.61230469 C57.7831854 29.87287248 59.94664033 31.10278842 62.12109375 32.3203125 C97.23289582 52.16479324 129.14243384 77.20458256 160 103 C158.68381775 105.9472939 157.31827782 107.88613671 154.9296875 110.046875 C154.291521 110.63339844 153.65335449 111.21992187 152.99584961 111.82421875 C152.29596924 112.45972656 151.59608887 113.09523438 150.875 113.75 C143.03926243 120.98272156 135.46045854 128.44542181 127.9375 136 C127.39341492 136.54603882 126.84932983 137.09207764 126.28875732 137.65466309 C123.18909049 140.7663927 120.09298544 143.88162701 117 147 C112.26024239 143.51246542 107.68303096 139.9383406 103.25 136.0625 C89.63595599 124.37514587 74.92311125 113.94001168 60 104 C59.35595215 103.56800293 58.7119043 103.13600586 58.04833984 102.69091797 C19.52413094 76.93505928 -21.85223651 56.65147271 -65 40 C-52.77465073 27.60093351 -38.59682501 18.38089935 -24 9 C-23.12891602 8.43522949 -22.25783203 7.87045898 -21.36035156 7.28857422 C-19.06716568 5.81333707 -16.75824663 4.36887596 -14.4375 2.9375 C-13.44907104 2.30231445 -13.44907104 2.30231445 -12.44067383 1.65429688 C-7.79214156 -1.12915428 -5.20747552 -1.11896449 0 0 Z " fill="#007A6E" transform="translate(187,1)"/>
<path d="M0 0 C50.11962451 4.47929011 103.28842203 36.59139636 143 66 C143.54076172 66.40041504 144.08152344 66.80083008 144.63867188 67.21337891 C152.82494049 73.31377056 160.64043482 79.80022147 168.31005859 86.53613281 C169.972966 87.97658251 171.6629962 89.37743502 173.36328125 90.7734375 C174.38846778 91.64009658 175.41323024 92.50725762 176.4375 93.375 C177.34371094 94.12523437 178.24992188 94.87546875 179.18359375 95.6484375 C181 98 181 98 180.77319336 100.78686523 C179.98674858 104.05506849 178.90819635 106.73927918 177.4453125 109.76171875 C176.91768311 110.86870117 176.39005371 111.97568359 175.84643555 113.11621094 C175.27836182 114.29473633 174.71028809 115.47326172 174.125 116.6875 C167.51678761 130.57735843 161.65086087 144.69341453 156 159 C155.34 159 154.68 159 154 159 C152.73046875 157.70703125 152.73046875 157.70703125 151.1875 155.8125 C143.43136646 146.71798998 134.89187331 138.44208647 125.51953125 131.02734375 C123.22699881 129.18265485 121.08677489 127.25738102 118.9375 125.25 C85.33680413 95.17051382 42.56001449 76.59319705 0.13623047 63.0078125 C-3.92033706 61.70425413 -7.96087455 60.35652007 -12 59 C-11.09927704 48.268973 -9.29041902 37.79714217 -7.125 27.25 C-6.75834229 25.4407605 -6.75834229 25.4407605 -6.38427734 23.5949707 C-4.69972366 15.5711755 -2.54506323 7.7927335 0 0 Z " fill="#00796E" transform="translate(13,205)"/>
<path d="M0 0 C40.43782808 12.34196211 76.59915357 33.65878858 107 63 C108.01247803 63.97163086 108.01247803 63.97163086 109.04541016 64.96289062 C117.99856837 73.59448747 126.38433675 82.33736929 133.77685547 92.34912109 C135.03314663 94.04473803 136.31218314 95.72095435 137.59765625 97.39453125 C146.15534534 108.59747501 146.15534534 108.59747501 145.64794922 113.1784668 C145.36967285 114.42281494 145.09139648 115.66716309 144.8046875 116.94921875 C144.58358559 117.96999008 144.58358559 117.96999008 144.35801697 119.01138306 C144.04017021 120.47516276 143.7165786 121.93770446 143.3878479 123.39907837 C142.51872637 127.27725845 141.7015915 131.16644118 140.87890625 135.0546875 C140.71378036 135.83046646 140.54865448 136.60624542 140.37852478 137.40553284 C132.95286501 172.45372637 130.47893024 208.28022753 129 244 C128.67 244 128.34 244 128 244 C127.90203125 242.86046875 127.8040625 241.7209375 127.703125 240.546875 C122.77712032 186.7919208 98.53216571 136.01683646 57.28857422 100.52734375 C53.29288373 97.21620988 49.16624344 94.09198006 45 91 C44.43168457 90.57090332 43.86336914 90.14180664 43.27783203 89.69970703 C33.82839895 82.57960639 23.30287104 74.76762368 12 71 C11.02922593 68.49790812 10.29384724 66.14945096 9.625 63.5625 C9.41512451 62.77697754 9.20524902 61.99145508 8.98901367 61.18212891 C3.84738185 41.26141044 -0.23092356 20.6175086 0 0 Z " fill="#00796E" transform="translate(0,330)"/>
<path d="M0 0 C77.72522071 0 77.72522071 0 92.3125 13.625 C101.20875977 22.98873839 104.33308385 32.88173448 104.21875 45.515625 C103.40529914 58.47273517 98.54168281 69.21841735 89 78 C85.77872135 80.2347047 82.47334602 82.18503435 79 84 C84.20397802 93.57645411 89.42311022 103.13448066 95 112.5 C98.75416494 118.81639951 102.38426826 125.19332023 105.9375 131.625 C106.39833984 132.45451172 106.85917969 133.28402344 107.33398438 134.13867188 C114 146.2757581 114 146.2757581 114 151 C101.79 151 89.58 151 77 151 C75.576875 148.009375 74.15375 145.01875 72.6875 141.9375 C71.77225733 140.01817103 70.85690901 138.09889242 69.94140625 136.1796875 C67.95999691 132.02291257 65.99003896 127.86095387 64.02734375 123.6953125 C63.0599282 121.65102635 62.09248112 119.60675512 61.125 117.5625 C60.44763794 116.11701782 60.44763794 116.11701782 59.7565918 114.64233398 C57.46883895 109.82105777 55.11397081 105.33783375 52 101 C46.41885283 101.48091518 41.39760751 102.44299783 36 104 C34.35 104 32.7 104 31 104 C31 119.51 31 135.02 31 151 C20.77 151 10.54 151 0 151 C0 101.17 0 51.34 0 0 Z M31 31 C31 44.53 31 58.06 31 72 C44.10170743 72 55.4913054 68.10988115 65.1328125 58.98046875 C70.96103984 52.75435447 70.96103984 52.75435447 72.9375 44.8046875 C72.27934124 40.65006033 71.27834666 38.33544342 68.5625 35.0625 C61.22382454 29.88790613 50.36814142 30.73346022 41.8125 30.875 C38.244375 30.91625 34.67625 30.9575 31 31 Z " fill="#00796F" transform="translate(1377,426)"/>
<path d="M0 0 C33.99 0 67.98 0 103 0 C103 9.57 103 19.14 103 29 C80.56 29 58.12 29 35 29 C35 38.57 35 48.14 35 58 C54.8 58 74.6 58 95 58 C95 67.24 95 76.48 95 86 C75.2 86 55.4 86 35 86 C35 97.88 35 109.76 35 122 C59.09 122 83.18 122 108 122 C108 131.57 108 141.14 108 151 C72.36 151 36.72 151 0 151 C0 101.17 0 51.34 0 0 Z " fill="#007A6E" transform="translate(960,426)"/>
<path d="M0 0 C1.27145874 0.2952356 1.27145874 0.2952356 2.56860352 0.59643555 C8.61359921 2.08593669 14.27644083 4.18487624 20 6.625 C19.59941626 17.24046915 13.85788705 24.94119882 7 32.625 C6.43079834 32.50906494 5.86159668 32.39312988 5.27514648 32.27368164 C2.66301573 31.7428729 0.05026738 31.21516581 -2.5625 30.6875 C-3.45775391 30.50509766 -4.35300781 30.32269531 -5.27539062 30.13476562 C-14.11750391 28.35338749 -22.53968732 27.42100542 -31.5625 27.375 C-32.57763672 27.354375 -33.59277344 27.33375 -34.63867188 27.3125 C-40.28648672 27.28298823 -44.21768171 27.51853684 -49 30.625 C-49.83953267 33.82404988 -49.83953267 33.82404988 -49 37.625 C-42.92044202 43.26819965 -35.05365165 46.81427529 -27.62109375 50.3125 C-25.46156218 51.35150772 -23.30205779 52.39057192 -21.14257812 53.4296875 C-17.7847575 55.03208833 -14.42522832 56.63083071 -11.06469727 58.22753906 C-7.78743475 59.78852765 -4.51664863 61.36251741 -1.24609375 62.9375 C-0.25210068 63.40438232 0.7418924 63.87126465 1.76600647 64.35229492 C14.99193061 70.73291698 24.54276611 78.93376043 30.0546875 92.6953125 C33.80943434 104.33192462 33.37104179 117.61357214 28 128.625 C25.95182588 131.93837535 23.66267576 134.78700403 21 137.625 C20.41476562 138.25148438 19.82953125 138.87796875 19.2265625 139.5234375 C6.42996327 151.88808402 -11.22574493 154.11910825 -28.19238281 153.97436523 C-51.68134229 153.41027837 -73.05766442 147.06427863 -93 134.625 C-91.49120445 124.85291721 -84.71772072 116.42342975 -79 108.625 C-77.70642578 109.09679687 -77.70642578 109.09679687 -76.38671875 109.578125 C-69.03999687 112.1537445 -61.74828984 114.27677536 -54.125 115.875 C-53.35373779 116.03774414 -52.58247559 116.20048828 -51.7878418 116.36816406 C-43.36379002 118.06758729 -35.08892856 118.80549435 -26.5 118.8125 C-25.31470703 118.83086914 -25.31470703 118.83086914 -24.10546875 118.84960938 C-17.68797693 118.86536426 -11.30730771 118.27865386 -5.5 115.375 C-3.2799121 112.78489745 -3.06535105 111.02325473 -3 107.625 C-4.78498472 100.61256004 -9.15932543 97.57493984 -15 93.625 C-18.4151818 91.74555942 -21.92181957 90.16726438 -25.5 88.625 C-26.4590625 88.19840088 -27.418125 87.77180176 -28.40625 87.33227539 C-33.5282529 85.0705399 -38.68745485 82.93586861 -43.89892578 80.89038086 C-52.68393896 77.42884476 -60.32341118 73.12131591 -68 67.625 C-68.71800781 67.11195313 -69.43601562 66.59890625 -70.17578125 66.0703125 C-77.09612262 60.63838158 -83.04321214 52.44288747 -84.484375 43.6796875 C-85.5296526 31.1670997 -84.11304935 20.1998655 -76.0234375 10.17578125 C-56.90307514 -10.26206191 -24.71978208 -5.78107963 0 0 Z " fill="#007A6F" transform="translate(919,426.375)"/>
<path d="M0 0 C1.33224609 -0.02707031 1.33224609 -0.02707031 2.69140625 -0.0546875 C5.06140293 -0.0000253 6.77808588 0.18235552 9 1 C10.14224243 2.54457092 10.14224243 2.54457092 11.03759766 4.52368164 C11.36906799 5.2496756 11.70053833 5.97566956 12.04205322 6.72366333 C13.55867684 10.32756497 14.98169666 13.95313695 16.3359375 17.62109375 C16.64759354 18.45310806 16.95924957 19.28512238 17.28034973 20.14234924 C17.95830001 21.95272231 18.63442873 23.76377834 19.30892944 25.57543945 C21.17848924 30.59461318 23.06373615 35.6078839 24.94921875 40.62109375 C25.35133072 41.69072357 25.75344269 42.76035339 26.16773987 43.86239624 C31.09317576 56.93951134 36.14344696 69.96829952 41.1875 83 C53.58650365 115.06055614 53.58650365 115.06055614 59.46084595 130.53100586 C60.06482141 132.12096043 60.66992368 133.71048747 61.2762146 135.29956055 C62.0911631 137.43672699 62.90180171 139.5754711 63.7109375 141.71484375 C64.15743652 142.89167725 64.60393555 144.06851074 65.06396484 145.28100586 C66 148 66 148 66 150 C55.11 150 44.22 150 33 150 C31.845 146.74125 30.69 143.4825 29.5 140.125 C29.13455078 139.09906738 28.76910156 138.07313477 28.39257812 137.01611328 C28.10833984 136.20899902 27.82410156 135.40188477 27.53125 134.5703125 C27.23798828 133.74289551 26.94472656 132.91547852 26.64257812 132.06298828 C26 130 26 130 26 128 C6.45868928 125.0523404 -11.44428187 124.05265854 -31 127 C-33.33324111 127.33397824 -35.666547 127.66750541 -38 128 C-38.226875 129.216875 -38.45375 130.43375 -38.6875 131.6875 C-40.09116806 137.97392768 -42.11007445 144.2372998 -45 150 C-48.39014816 151.13004939 -50.99381313 151.12941627 -54.56640625 151.1328125 C-55.85611328 151.13410156 -57.14582031 151.13539063 -58.47460938 151.13671875 C-59.48044067 151.13357666 -59.48044067 151.13357666 -60.5065918 151.13037109 C-62.5585059 151.12501043 -64.61020199 151.13032881 -66.66210938 151.13671875 C-68.59473633 151.13478516 -68.59473633 151.13478516 -70.56640625 151.1328125 C-71.75177979 151.13168457 -72.93715332 151.13055664 -74.15844727 151.12939453 C-77 151 -77 151 -79 150 C-78.38500216 146.52687209 -77.49242955 143.39024929 -76.21606445 140.10449219 C-75.6607605 138.66602684 -75.6607605 138.66602684 -75.09423828 137.19850159 C-74.48491455 135.63844643 -74.48491455 135.63844643 -73.86328125 134.046875 C-73.4360376 132.94331161 -73.00879395 131.83974823 -72.56860352 130.70274353 C-71.39815679 127.68151482 -70.22417315 124.66168939 -69.04867935 121.64242172 C-67.81033416 118.45913311 -66.57656404 115.27407286 -65.3425293 112.08911133 C-63.80050948 108.11001811 -62.25807841 104.13108655 -60.71369934 100.15290833 C-57.14078936 90.9490306 -53.58116329 81.74011427 -50.03125 72.52734375 C-49.54380539 71.26260084 -49.05635323 69.99786084 -48.56889343 68.73312378 C-46.70491689 63.89666087 -44.84118615 59.06010337 -42.97817993 54.2232666 C-37.99429299 41.28693975 -32.98113337 28.36251969 -27.91796875 15.45703125 C-27.4415242 14.24133957 -26.96507965 13.02564789 -26.47419739 11.77311707 C-26.0343602 10.65407486 -25.59452301 9.53503265 -25.14135742 8.38208008 C-24.55640755 6.89300896 -24.55640755 6.89300896 -23.9596405 5.37385559 C-23 3 -23 3 -22 1 C-14.68548168 -0.21908639 -7.3975863 -0.16459401 0 0 Z M-7 43 C-9.54566222 50.06565791 -12.09077334 57.13151415 -14.63549805 64.19750977 C-15.50158141 66.60217811 -16.36779178 69.00680072 -17.23413086 71.41137695 C-18.47803461 74.86397529 -19.72148425 78.31673688 -20.96484375 81.76953125 C-21.35341049 82.84773636 -21.74197723 83.92594147 -22.14231873 85.03681946 C-22.68276573 86.53803596 -22.68276573 86.53803596 -23.23413086 88.06958008 C-23.55167831 88.95116287 -23.86922577 89.83274567 -24.19639587 90.74104309 C-24.81752825 92.48706609 -25.41396231 94.24188693 -26 96 C-24.96166016 95.89171875 -24.96166016 95.89171875 -23.90234375 95.78125 C-11.54642539 94.60914707 0.65823402 94.71296295 13 96 C12.38785978 92.60681893 11.54550148 89.4766101 10.35766602 86.24145508 C10.02384415 85.32733353 9.69002228 84.41321198 9.34608459 83.47138977 C8.98566574 82.49727646 8.62524689 81.52316315 8.25390625 80.51953125 C7.69714455 79.00573128 7.69714455 79.00573128 7.12913513 77.46134949 C6.34507003 75.33331393 5.55906051 73.20599391 4.77124023 71.0793457 C3.56395822 67.81644111 2.36662545 64.54999998 1.16992188 61.28320312 C0.40685138 59.21592375 -0.35680054 57.14885888 -1.12109375 55.08203125 C-1.47948837 54.10184525 -1.837883 53.12165924 -2.20713806 52.11177063 C-2.54411209 51.20710556 -2.88108612 50.30244049 -3.22827148 49.37036133 C-3.52281723 48.57269852 -3.81736298 47.77503571 -4.12083435 46.95320129 C-4.94105834 44.82256523 -4.94105834 44.82256523 -7 43 Z " fill="#007A6E" transform="translate(1298,426)"/>
<path d="M0 0 C41.25 0 82.5 0 125 0 C125 9.57 125 19.14 125 29 C110.15 29 95.3 29 80 29 C80 69.26 80 109.52 80 151 C68.45 151 56.9 151 45 151 C45 110.74 45 70.48 45 29 C30.15 29 15.3 29 0 29 C0 19.43 0 9.86 0 0 Z " fill="#00796F" transform="translate(1725,426)"/>
<path d="M0 0 C2.61301022 2.33535411 4.00691994 4.6696 5.53125 7.8125 C6.00667236 8.7919458 6.48209473 9.7713916 6.97192383 10.78051758 C7.47618896 11.84294678 7.9804541 12.90537598 8.5 14 C9.2902356 15.65841919 9.2902356 15.65841919 10.09643555 17.3503418 C15.42284692 28.67403931 20.23135007 40.18506726 24.76904297 51.84521484 C25.56952843 53.89675653 26.38050751 55.9442452 27.20361328 57.98681641 C28.29021295 60.68917076 29.33847373 63.40311565 30.375 66.125 C30.69186768 66.89948486 31.00873535 67.67396973 31.33520508 68.47192383 C33.55558097 74.54246218 32.54218099 78.19740102 30 84 C29.26646071 85.81100909 28.53341563 87.6222184 27.80078125 89.43359375 C27.40028564 90.3980542 26.99979004 91.36251465 26.5871582 92.35620117 C13.43031731 124.16092994 4.85042557 157.79096042 1 192 C0.87328918 193.0428566 0.87328918 193.0428566 0.74401855 194.10678101 C-1.68803411 214.63841113 -1.44054798 235.33862994 -1.60089111 255.98205566 C-1.64147806 260.95750169 -1.69231534 265.93284305 -1.7421875 270.90820312 C-1.83793122 280.60539432 -1.92264735 290.30264583 -2 300 C-2.33 300 -2.66 300 -3 300 C-3.00879936 298.35559181 -3.00879936 298.35559181 -3.01777649 296.67796326 C-3.07573521 286.19487642 -3.14885358 275.71198268 -3.23571491 265.22909451 C-3.27988179 259.8435823 -3.31924485 254.45813655 -3.34643555 249.07250977 C-3.64982804 190.78548134 -10.12824986 133.70805185 -31.56201172 78.97558594 C-31.88186035 78.14188477 -32.20170898 77.30818359 -32.53125 76.44921875 C-32.81548828 75.73080811 -33.09972656 75.01239746 -33.39257812 74.2722168 C-34.84394872 68.84299406 -33.84790529 64.90624307 -31.578125 59.87890625 C-31.05307373 58.70714844 -30.52802246 57.53539062 -29.98706055 56.328125 C-29.40889344 55.0725235 -28.82985323 53.81732372 -28.25 52.5625 C-27.65849744 51.26437421 -27.06710875 49.96619653 -26.47583008 48.66796875 C-7.68922236 7.68922236 -7.68922236 7.68922236 0 0 Z " fill="#00796E" transform="translate(382,349)"/>
<path d="M0 0 C5.06149528 4.52262886 8.47312868 9.94146036 12.125 15.625 C12.78661133 16.64972412 13.44822266 17.67444824 14.12988281 18.73022461 C20.06368562 27.98618189 25.73770021 37.34616779 31 47 C31.76763672 48.40040527 31.76763672 48.40040527 32.55078125 49.82910156 C34.14488778 52.76811428 35.7028178 55.72355226 37.25 58.6875 C37.74081055 59.59636963 38.23162109 60.50523926 38.73730469 61.44165039 C41.53660345 66.93779726 42.73075241 70.91877172 41 77 C40.76168457 77.84844482 40.52336914 78.69688965 40.27783203 79.57104492 C39.36808148 82.64309732 38.40298282 85.69502586 37.4375 88.75 C24.75259315 130.45411949 18.79207355 173.51863647 17 217 C15.02146839 213.64814655 14.62477512 210.81909395 14.32421875 206.9609375 C14.22141602 205.75397217 14.11861328 204.54700684 14.01269531 203.3034668 C13.85172363 201.35887573 13.85172363 201.35887573 13.6875 199.375 C9.96879153 158.26116282 -1.06853903 112.45114071 -23.35546875 77.1953125 C-25.82964833 72.38799921 -25.38618069 68.54244625 -24.08886719 63.36083984 C-23.66940415 62.05721503 -23.23811251 60.75735424 -22.796875 59.4609375 C-22.44581444 58.39383545 -22.44581444 58.39383545 -22.08766174 57.30517578 C-21.32070471 54.9908086 -20.53658704 52.68276299 -19.75 50.375 C-19.48488617 49.58619446 -19.21977234 48.79738892 -18.94662476 47.98468018 C-13.49525972 31.78751924 -7.6557064 15.31141279 0 0 Z " fill="#00796F" transform="translate(238,354)"/>
<path d="M0 0 C2.16910686 3.25366029 3.31453874 6.47720428 4.5390625 10.1484375 C4.78120987 10.86518143 5.02335724 11.58192535 5.27284241 12.32038879 C6.06320177 14.66986934 6.84509326 17.02203029 7.625 19.375 C8.02484604 20.5766832 8.02484604 20.5766832 8.43276978 21.80264282 C12.10295403 32.86198988 15.56999827 43.95949636 18.6875 55.1875 C19.01379395 56.35394043 19.34008789 57.52038086 19.67626953 58.72216797 C20.50970236 61.80437387 21.28033445 64.88945446 22 68 C22.19730713 68.81605713 22.39461426 69.63211426 22.59790039 70.47290039 C23.79349101 76.94558064 21.55800826 80.70672366 18.0625 86.0625 C17.03289427 87.7387014 16.00689386 89.41712232 14.984375 91.09765625 C14.21963867 92.33926514 14.21963867 92.33926514 13.43945312 93.60595703 C-8.58755175 130.24042274 -18.58189852 173.65255581 -20 216 C-20.33 216 -20.66 216 -21 216 C-21.06993164 214.71875244 -21.13986328 213.43750488 -21.21191406 212.11743164 C-23.7651667 165.95543882 -28.02802439 120.3832878 -40.51074219 75.70458984 C-40.8359082 74.52461426 -41.16107422 73.34463867 -41.49609375 72.12890625 C-41.78669678 71.10869385 -42.0772998 70.08848145 -42.37670898 69.03735352 C-43.50598848 63.53427235 -43.69244711 59.21667774 -40.6484375 54.390625 C-40.13394043 53.56304687 -39.61944336 52.73546875 -39.08935547 51.8828125 C-38.24074951 50.57957031 -38.24074951 50.57957031 -37.375 49.25 C-36.79250488 48.33476562 -36.21000977 47.41953125 -35.60986328 46.4765625 C-26.39674345 32.1882314 -16.14994827 18.81790801 -5 6 C-3.32396777 4.00758277 -1.66127254 2.00477988 0 0 Z " fill="#007A6E" transform="translate(526,364)"/>
<path d="M0 0 C4.63928309 3.79415554 8.77233345 7.72414164 12.625 12.3125 C13.1307959 12.90933594 13.6365918 13.50617188 14.15771484 14.12109375 C19.81860375 20.87041484 25.17398381 27.85140127 30.43945312 34.91162109 C31.47420704 36.2963653 32.51452795 37.6769681 33.56054688 39.05322266 C35.01184833 40.96354256 36.44574971 42.88565128 37.875 44.8125 C38.31021973 45.38097656 38.74543945 45.94945312 39.19384766 46.53515625 C42.07070277 50.48110484 42.07070277 50.48110484 41.73217773 52.96557617 C40.47205183 56.46695302 38.24907227 59.42797093 36.1875 62.5 C26.0465098 77.9029983 16.83383435 93.81766628 8 110 C4.84590559 106.19060287 2.07762433 102.19684293 -0.625 98.0625 C-7.28540145 87.99088459 -14.21624274 78.17576621 -21.6875 68.6875 C-22.14592285 68.10282959 -22.6043457 67.51815918 -23.07666016 66.91577148 C-25.1093996 64.33688462 -27.16460458 61.81073244 -29.3203125 59.33203125 C-30.30644531 58.17767578 -30.30644531 58.17767578 -31.3125 57 C-32.17294922 56.0409375 -32.17294922 56.0409375 -33.05078125 55.0625 C-34 53 -34 53 -33.26611328 50.21655273 C-32.00654225 47.01662055 -30.54453839 44.36461564 -28.69140625 41.47265625 C-28.03180908 40.43995605 -27.37221191 39.40725586 -26.69262695 38.34326172 C-25.98968506 37.26061035 -25.28674316 36.17795898 -24.5625 35.0625 C-24.0258522 34.2298764 -24.0258522 34.2298764 -23.47836304 33.38043213 C-18.34994415 25.42418812 -13.04780031 17.63260205 -7.33203125 10.0859375 C-4.82322425 6.76607564 -2.4067918 3.39430317 0 0 Z " fill="#007A6E" transform="translate(305,239)"/>
<path d="M0 0 C3.69863813 1.23287938 3.99298473 2.19531304 5.8984375 5.50390625 C6.45426514 6.46119629 7.01009277 7.41848633 7.58276367 8.40478516 C8.46992065 9.967854 8.46992065 9.967854 9.375 11.5625 C10.29406128 13.16037354 10.29406128 13.16037354 11.23168945 14.79052734 C17.25035752 25.31297638 23.09214054 35.93916273 28.75537109 46.65722656 C29.78531214 48.59589159 30.85097596 50.51553123 31.92578125 52.4296875 C33 55 33 55 33.0078125 57.046875 C31.47891437 60.00985587 29.28056767 61.9558619 26.875 64.25 C22.97707584 68.02811349 19.24903797 71.8642801 15.7265625 75.99609375 C13.78258954 78.25233386 11.76676482 80.43363893 9.75 82.625 C5.54956681 87.26417707 1.68741466 92.11788992 -2.10644531 97.09033203 C-2.54053711 97.65478027 -2.97462891 98.21922852 -3.421875 98.80078125 C-3.79924805 99.29747314 -4.17662109 99.79416504 -4.56542969 100.3059082 C-6.57342764 102.67716378 -8.78576686 104.82251666 -11 107 C-11.44690186 106.06542969 -11.89380371 105.13085938 -12.35424805 104.16796875 C-21.1002842 85.90353723 -29.96273619 67.78254763 -39.84936523 50.10180664 C-40.95054111 48.09034407 -41.98868875 46.05787709 -43 44 C-40.67614363 41.32494991 -38.33978913 38.66112227 -36 36 C-35.36296143 35.27409668 -34.72592285 34.54819336 -34.06958008 33.80029297 C-28.33639505 27.34542441 -22.34629011 21.19154409 -16.23193359 15.1015625 C-14.60264165 13.47771638 -12.97887566 11.84847745 -11.35546875 10.21875 C-10.31282115 9.17676188 -9.2698641 8.1350833 -8.2265625 7.09375 C-7.29408691 6.16240234 -6.36161133 5.23105469 -5.40087891 4.27148438 C-3 2 -3 2 0 0 Z " fill="#00796E" transform="translate(467,247)"/>
<path d="M0 0 C8.22601922 3.52808951 14.31264179 12.29950916 20 19 C20.82242188 19.95648438 21.64484375 20.91296875 22.4921875 21.8984375 C25.35740411 25.24144765 28.1880041 28.61213097 31 32 C31.51804199 32.62374512 32.03608398 33.24749023 32.56982422 33.89013672 C34.12148303 35.77118192 35.65680286 37.66437556 37.1875 39.5625 C37.66928711 40.14596191 38.15107422 40.72942383 38.64746094 41.33056641 C41.24324476 44.58908331 42 45.68356828 42 50 C40.73754883 51.640625 40.73754883 51.640625 38.95703125 53.25 C38.3019458 53.85207275 37.64686035 54.45414551 36.97192383 55.07446289 C36.25931396 55.70989014 35.5467041 56.34531738 34.8125 57 C34.08506592 57.66572021 33.35763184 58.33144043 32.6081543 59.01733398 C30.41481932 61.0221961 28.20949443 63.01297531 26 65 C23.76547754 67.01501771 21.53501307 69.0342408 19.3125 71.0625 C18.7983252 71.53139648 18.28415039 72.00029297 17.75439453 72.48339844 C11.46738728 78.29981542 5.73915988 84.65029119 0 91 C-3.65322949 87.43892405 -7.03570133 83.72455463 -10.3125 79.8125 C-10.79323975 79.24225098 -11.27397949 78.67200195 -11.76928711 78.08447266 C-14.590858 74.72454172 -17.34841944 71.32276493 -20.0625 67.875 C-25.10030452 61.51580413 -30.65145701 55.62152204 -36.15625 49.66796875 C-36.7853125 48.97316406 -37.414375 48.27835938 -38.0625 47.5625 C-38.61035156 46.96566406 -39.15820312 46.36882812 -39.72265625 45.75390625 C-41.17450563 43.76038829 -41.67674818 42.44008144 -42 40 C-40.15796188 37.69663199 -38.36614691 35.76189812 -36.25390625 33.73046875 C-35.64997543 33.131241 -35.04604462 32.53201324 -34.42381287 31.91462708 C-32.48142438 29.99362727 -30.52214641 28.09087481 -28.5625 26.1875 C-27.27560625 24.91711526 -25.98978575 23.64564234 -24.70507812 22.37304688 C-18.63952801 16.38736962 -12.54487784 10.46569616 -6 5 C-5.40582275 4.50016602 -4.81164551 4.00033203 -4.19946289 3.48535156 C-2.80464799 2.31756227 -1.40322965 1.15766446 0 0 Z " fill="#007A6E" transform="translate(390,148)"/>
</svg>
